<svg enable-background="new 0 0 512 512" height="512" viewBox="0 0 512 512" width="512" xmlns="http://www.w3.org/2000/svg"><path d="m252.517 286.715h47.268v11.22h-48.077c-.487 0-1.133.107-1.62.107-5.988.541-7.769 1.514-8.577 4.966-.164.54-.164.973-.164 1.405v7.66c0 .541 0 .974.164 1.514.809 4.533 4.046 6.579 10.843 6.579h20.396c5.019 0 10.196.865 14.409 2.486 7.93 3.02 11.98 7.552 11.98 12.409v12.301c0 5.938-3.563 10.472-10.846 13.814-4.375 2.051-9.876 3.235-15.544 3.235h-48.399v-11.22h46.461c.648 0 1.131-.107 1.78-.107 3.235-.217 5.664-1.081 7.119-2.379 1.622-1.289 2.429-2.803 2.429-3.992v-9.818c0-1.077-.324-2.05-1.293-3.023-1.618-1.941-3.889-2.911-9.229-3.343-.486-.108-1.131-.108-1.779-.108h-17.485c-1.618 0-3.235-.108-4.857-.217-14.405-1.509-22.984-7.984-22.984-15.54v-9.818c0-8.633 4.371-13.599 14.407-16.729 3.237-.97 6.799-1.402 13.598-1.402zm131.05 74.292 16.584 14.967h-19.55l-13.415-12.11-13.507.857h-18.007c-3.081 0-6.325-.433-9.893-1.406-10.704-2.919-15.898-8.541-15.898-17.844v-40.01c0-10.167 7.141-16.334 21.25-18.28 1.46-.217 3.082-.324 4.541-.324h31.959c1.621 0 3.081.107 4.703.324 14.109 1.946 21.246 8.113 21.246 18.28v40.01c.001 8.246-3.026 12.662-10.013 15.536zm-5.718-54.572c0-.433 0-.974-.162-1.519-.973-4.324-5.352-6.812-11.839-6.812h-25.467c-7.465 0-12.326 3.244-12.326 8.33v38.063c0 .541.162 1.081.32 1.73.973 4.653 5.356 7.248 12.006 7.248h15.291l-14.048-12.684h19.55l12.255 11.062c2.254-1.206 3.742-3.044 4.258-5.41.162-.536.162-1.081.162-1.622zm-268.568-19.613c-12.788-3.992-21.369-.54-25.252 8.093l-25.577 57.196-24.766-57.196c-3.724-8.633-12.465-12.085-25.252-8.093-5.342 1.618-7.933 4.749-7.933 11.22v66.37h16.833v-66.478l26.064 57.953c3.075 7.016 7.284 9.498 15.538 9.498 8.257 0 12.303-2.482 15.38-9.498l26.062-57.953v66.478h16.836v-66.37c-.001-6.471-2.591-9.602-7.933-11.22zm85.227 23.305v43.606c-.295 0-31.902.075-36.607 0-9.222-.142-10.018-4.815-9.86-6.804v-36.628h-16.83c.368.366-.004 37.011.008 37.784.131 8.358 10.733 15.62 27.38 15.777h35.782v4.412c.002 1.813 1.281 7.199-9.554 8.347-.133.008-53.158 0-53.25 0v11.328h53.157c8.431-.25 26.723-3.436 26.629-18.103-.002-.254.094-59.721.015-59.721h-16.87zm306.638 43.606 4.066 6.222h-2.777l-3.705-6.122h-2.217v6.122h-2.379v-14.164h5.522c3.506 0 5.327 1.193 5.327 4.071 0 2.582-1.655 3.639-3.837 3.871zm-2.088-1.887c1.788 0 3.344-.167 3.344-2.146 0-1.654-1.722-1.921-3.145-1.921h-2.744v4.067zm12.442 1.027c0 7.41-5.855 12.404-12.409 12.404-6.546 0-12.404-4.994-12.404-12.404 0-7.411 5.858-12.405 12.404-12.405 6.554 0 12.409 4.994 12.409 12.405zm-2.778 0c0-5.627-4.3-9.827-9.631-9.827-5.39 0-9.627 4.2-9.627 9.827 0 5.622 4.237 9.826 9.627 9.826 5.331 0 9.631-4.204 9.631-9.826zm-146.659-196.89c-2.158-.04-3.685.234-5.298.588v.293h.295c1.031 2.115 2.849 3.477 4.121 5.299.978 2.061 1.959 4.119 2.94 6.177.1-.098.199-.195.295-.293 1.825-1.283 2.657-3.337 2.649-6.473-.732-.77-.841-1.732-1.473-2.649-.838-1.223-2.468-1.914-3.529-2.942zm142.417 150.955c1.389 1.019 2.32 2.599 4.121 3.239 0-.1 0-.199 0-.295-.948-1.202-1.189-2.861-2.059-4.121-1.272-1.272-2.554-2.549-3.826-3.826-3.742-4.965-8.487-9.323-13.535-12.945-4.021-2.891-13.033-6.791-14.713-11.474-.096-.1-.196-.199-.296-.299 2.853-.32 6.196-1.352 8.829-2.059 4.424-1.186 8.379-.878 12.945-2.059 2.063-.591 4.121-1.181 6.18-1.764 0-.395 0-.785 0-1.181-2.309-2.37-3.955-5.506-6.471-7.651-6.592-5.608-13.781-11.216-21.188-15.888-4.104-2.594-9.183-4.277-13.536-6.475-1.464-.738-4.034-1.123-5.003-2.354-2.283-2.916-3.53-6.611-5.294-10.006-3.692-7.113-7.323-14.881-10.596-22.365-2.229-5.102-3.688-10.134-6.471-14.713-13.361-21.967-27.746-35.227-50.023-48.26-4.744-2.771-10.45-3.865-16.479-5.295-3.235-.195-6.476-.394-9.711-.589-1.975-.825-4.029-3.241-5.884-4.414-7.382-4.662-26.315-14.805-31.779-1.47-3.452 8.415 5.156 16.627 8.237 20.893 2.163 2.991 4.928 6.346 6.476 9.709 1.015 2.211 1.188 4.43 2.063 6.769 2.138 5.764 3.996 12.034 6.762 17.362 1.401 2.694 2.944 5.535 4.712 7.944 1.085 1.479 2.939 2.13 3.23 4.414-1.813 2.543-1.917 6.489-2.936 9.71-4.6 14.502-2.865 32.524 3.826 43.258 2.05 3.293 6.886 10.362 13.531 7.649 5.813-2.368 4.517-9.708 6.18-16.183.374-1.471.146-2.55.882-3.531v.293c1.768 3.531 3.534 7.062 5.298 10.592 3.922 6.313 10.879 12.915 16.775 17.364 3.053 2.308 5.46 6.3 9.415 7.651 0-.1 0-.199 0-.299-.1 0-.2 0-.295 0-.77-1.189-1.968-1.688-2.94-2.645-2.304-2.259-4.865-5.065-6.771-7.652-5.364-7.279-10.101-15.247-14.417-23.539-2.063-3.961-3.855-8.33-5.594-12.359-.669-1.555-.661-3.904-2.059-4.709-1.904 2.952-4.707 5.342-6.18 8.828-2.354 5.574-2.657 12.371-3.53 19.42-.516.186-.287.059-.591.293-4.1-.986-5.539-5.206-7.061-8.826-3.851-9.152-4.566-23.891-1.177-34.428.877-2.725 4.845-11.312 3.235-13.83-.766-2.514-3.29-3.965-4.703-5.886-1.756-2.374-3.502-5.497-4.716-8.24-3.148-7.136-4.62-15.147-7.939-22.362-1.588-3.447-4.271-6.939-6.475-10.006-2.44-3.396-5.173-5.896-7.062-10.006-.673-1.459-1.588-3.794-.59-5.295.315-1.013.765-1.435 1.768-1.766 1.709-1.316 6.458.438 8.237 1.177 4.716 1.959 8.658 3.826 12.655 6.473 1.917 1.272 3.858 3.734 6.175 4.415h2.649c4.146.951 8.787.297 12.654 1.472 6.841 2.079 12.971 5.313 18.538 8.829 16.959 10.707 30.827 25.953 40.313 44.138 1.526 2.928 2.188 5.722 3.53 8.829 2.711 6.263 6.13 12.706 8.828 18.832 2.691 6.108 5.315 12.275 9.12 17.361 2 2.672 9.73 4.106 13.245 5.592 2.462 1.039 6.495 2.125 8.824 3.527 4.458 2.689 8.771 5.887 12.949 8.831 2.088 1.473 8.509 4.699 8.825 7.353-10.347-.274-18.252.687-25.01 3.535-1.921.807-4.982.831-5.298 3.234 1.056 1.106 1.223 2.762 2.063 4.121 1.609 2.612 4.333 6.109 6.766 7.947 2.657 2.005 5.394 4.15 8.238 5.885 5.065 3.09 10.721 4.853 15.595 7.946 2.884 1.826 5.737 4.121 8.539 6.18zm-83.486 37.838v-58.062h-16.834v58.169c0 11.544 8.579 18.02 25.899 19.316 1.617.104 3.235.212 4.857.212h43.868v-11.22h-44.193c-9.871.001-13.597-2.485-13.597-8.415z"/></svg>